<svg xmlns="http://www.w3.org/2000/svg" width="564.198" height="576.142" viewBox="0 0 564.198 576.142">
  <g id="Group_662" data-name="Group 662" transform="translate(-350.596 -2767.471)">
    <g id="Group_661" data-name="Group 661">
      <g id="GRAF_bezpieczenstwo" data-name="GRAF bezpieczenstwo">
        <path id="Path_87" data-name="Path 87" d="M844.12,3071.277V2870.035L669.833,2769.4l-174.306,100.64v201.242l174.306,100.64Z" transform="translate(-0.325 -1.924)" fill="#d6ebe8" opacity="0.43" style="mix-blend-mode: multiply;isolation: isolate"/>
        <path id="Path_88" data-name="Path 88" d="M625.026,3170.943h-35.77a8.57,8.57,0,0,1-8.56-8.56v-70.609a1.128,1.128,0,1,1,2.255,0v70.609a6.312,6.312,0,0,0,6.3,6.3h35.77a1.128,1.128,0,0,1,0,2.255Z" transform="translate(-0.325 -1.924)" fill="#0f9091"/>
        <g id="Group_49" data-name="Group 49" transform="translate(-0.325 -1.924)">
          <g id="Group_48" data-name="Group 48">
            <circle id="Ellipse_2" data-name="Ellipse 2" cx="13.486" cy="13.486" r="13.486" transform="translate(625.026 3156.329)" fill="#fff"/>
            <path id="Path_89" data-name="Path 89" d="M638.512,3184.428a14.614,14.614,0,1,1,14.612-14.612A14.629,14.629,0,0,1,638.512,3184.428Zm0-26.971a12.358,12.358,0,1,0,12.357,12.359A12.374,12.374,0,0,0,638.512,3157.457Z" fill="#0f9091"/>
          </g>
        </g>
        <g id="Group_51" data-name="Group 51" transform="translate(-0.325 -1.924)">
          <g id="Group_50" data-name="Group 50">
            <path id="Path_90" data-name="Path 90" d="M643.33,3172.275q.166.177.3.309a3.652,3.652,0,0,0,.282.255.443.443,0,0,0,.221.124c.087,0,.258-.126.51-.379s.379-.423.379-.511c0-.041-.073-.146-.22-.317s-.335-.371-.565-.6-.452-.454-.669-.665-.428-.417-.634-.615-.325-.313-.356-.344a.245.245,0,0,0-.178-.078c-.088,0-.258.127-.51.379s-.379.423-.379.511a.447.447,0,0,0,.123.22c.083.1.168.2.256.283s.191.187.309.3.185.174.2.189l-.742.742-2.747-2.745a4.67,4.67,0,0,0,1.014-2.824,2.718,2.718,0,0,0-2.847-2.846,4.537,4.537,0,0,0-2.421.735,5.888,5.888,0,0,0-1.918,1.918,4.537,4.537,0,0,0-.735,2.421,2.719,2.719,0,0,0,2.847,2.847,4.671,4.671,0,0,0,2.823-1.014l5.19,5.19a.716.716,0,0,0,.526.217,1.052,1.052,0,0,0,.928-.928.715.715,0,0,0-.216-.526l-1.7-1.7.743-.743Zm-5.325-4.595a1.432,1.432,0,0,1-1.052.433.389.389,0,1,0-.495.495,1.488,1.488,0,1,1-1.485-1.485.389.389,0,1,0,.495-.5,1.485,1.485,0,1,1,2.537,1.052Z" fill="#0c8f90"/>
          </g>
        </g>
        <path id="Path_91" data-name="Path 91" d="M568.559,2998.814a1.126,1.126,0,0,1-1.127-1.128v-70.609a6.312,6.312,0,0,0-6.3-6.3H525.358a1.127,1.127,0,1,1,0-2.255h35.769a8.57,8.57,0,0,1,8.56,8.56v70.609A1.127,1.127,0,0,1,568.559,2998.814Z" transform="translate(-0.325 -1.924)" fill="#0f9091"/>
        <path id="Path_92" data-name="Path 92" d="M606.813,2995.5c-.623,0-1.128-.775-1.128-1.733V2858.633c0-.958.505-1.733,1.128-1.733s1.127.775,1.127,1.733v135.135C607.94,2994.726,607.436,2995.5,606.813,2995.5Z" transform="translate(-0.325 -1.924)" fill="#0f9091"/>
        <path id="Path_93" data-name="Path 93" d="M411.559,3099.649a1.126,1.126,0,0,1-1.128-1.127v-7.838a11.755,11.755,0,0,1,11.741-11.743H523a1.128,1.128,0,0,1,0,2.255H422.172a9.5,9.5,0,0,0-9.486,9.488v7.838A1.126,1.126,0,0,1,411.559,3099.649Z" transform="translate(-0.325 -1.924)" fill="#a4d4d5"/>
        <path id="Path_94" data-name="Path 94" d="M523,3055.69H422.172a11.754,11.754,0,0,1-11.741-11.741v-29.973a1.128,1.128,0,1,1,2.255,0v29.973a9.5,9.5,0,0,0,9.486,9.486H523a1.127,1.127,0,0,1,0,2.255Z" transform="translate(-0.325 -1.924)" fill="#a4d4d5"/>
        <path id="Path_95" data-name="Path 95" d="M549.6,3090.124v170.734c0,.436-.5.79-1.127.79s-1.126-.354-1.126-.79V3090.124c0-.436.5-.79,1.126-.79S549.6,3089.688,549.6,3090.124Z" transform="translate(-0.325 -1.924)" fill="#a4d4d5"/>
        <g id="Group_53" data-name="Group 53" transform="translate(-0.325 -1.924)">
          <path id="Path_96" data-name="Path 96" d="M736.846,2954.589a49.171,49.171,0,1,1,49.172-49.171A49.227,49.227,0,0,1,736.846,2954.589Zm0-96.087a46.916,46.916,0,1,0,46.917,46.916A46.968,46.968,0,0,0,736.846,2858.5Z" fill="#0f9091"/>
          <g id="Group_52" data-name="Group 52">
            <path id="Path_97" data-name="Path 97" d="M736.846,2849.61a1.127,1.127,0,0,1-1.128-1.127v-7.174a1.128,1.128,0,1,1,2.255,0v7.174A1.126,1.126,0,0,1,736.846,2849.61Z" fill="#0f9091"/>
            <path id="Path_98" data-name="Path 98" d="M736.846,2970.656a1.127,1.127,0,0,1-1.128-1.128v-7.175a1.128,1.128,0,0,1,2.255,0v7.175A1.126,1.126,0,0,1,736.846,2970.656Z" fill="#0f9091"/>
            <path id="Path_99" data-name="Path 99" d="M800.956,2906.546h-7.175a1.128,1.128,0,1,1,0-2.256h7.175a1.128,1.128,0,1,1,0,2.256Z" fill="#0f9091"/>
            <path id="Path_100" data-name="Path 100" d="M679.91,2906.546h-7.174a1.128,1.128,0,1,1,0-2.256h7.174a1.128,1.128,0,1,1,0,2.256Z" fill="#0f9091"/>
            <path id="Path_101" data-name="Path 101" d="M777.1,2866.287a1.128,1.128,0,0,1-.8-1.925l5.074-5.073a1.128,1.128,0,0,1,1.595,1.595l-5.074,5.073A1.127,1.127,0,0,1,777.1,2866.287Z" fill="#0f9091"/>
            <path id="Path_102" data-name="Path 102" d="M691.514,2951.878a1.127,1.127,0,0,1-.8-1.925l5.074-5.073a1.128,1.128,0,1,1,1.594,1.6l-5.074,5.073A1.123,1.123,0,0,1,691.514,2951.878Z" fill="#0f9091"/>
            <path id="Path_103" data-name="Path 103" d="M782.179,2951.878a1.124,1.124,0,0,1-.8-.33l-5.074-5.073a1.128,1.128,0,0,1,1.6-1.6l5.074,5.073a1.127,1.127,0,0,1-.8,1.925Z" fill="#0f9091"/>
            <path id="Path_104" data-name="Path 104" d="M696.588,2866.287a1.125,1.125,0,0,1-.8-.33l-5.074-5.073a1.127,1.127,0,0,1,1.594-1.595l5.074,5.073a1.128,1.128,0,0,1-.8,1.925Z" fill="#0f9091"/>
            <path id="Path_105" data-name="Path 105" d="M715.059,2853.944a1.129,1.129,0,0,1-1.042-.7l-2.746-6.629a1.128,1.128,0,1,1,2.083-.864l2.746,6.629a1.126,1.126,0,0,1-1.041,1.559Z" fill="#0f9091"/>
            <path id="Path_106" data-name="Path 106" d="M761.381,2965.776a1.127,1.127,0,0,1-1.041-.7l-2.747-6.629a1.128,1.128,0,0,1,2.084-.863l2.746,6.628a1.128,1.128,0,0,1-1.042,1.56Z" fill="#0f9091"/>
            <path id="Path_107" data-name="Path 107" d="M789.447,2884.757a1.127,1.127,0,0,1-.432-2.169l6.629-2.746a1.127,1.127,0,1,1,.863,2.083l-6.628,2.747A1.141,1.141,0,0,1,789.447,2884.757Z" fill="#0f9091"/>
            <path id="Path_108" data-name="Path 108" d="M677.618,2931.08a1.128,1.128,0,0,1-.432-2.169l6.627-2.745a1.127,1.127,0,1,1,.863,2.083l-6.626,2.745A1.138,1.138,0,0,1,677.618,2931.08Z" fill="#0f9091"/>
            <path id="Path_109" data-name="Path 109" d="M758.635,2853.944a1.126,1.126,0,0,1-1.042-1.559l2.747-6.629a1.128,1.128,0,1,1,2.083.864l-2.746,6.629A1.129,1.129,0,0,1,758.635,2853.944Z" fill="#0f9091"/>
            <path id="Path_110" data-name="Path 110" d="M712.312,2965.776a1.128,1.128,0,0,1-1.041-1.56l2.746-6.628a1.127,1.127,0,0,1,2.083.863l-2.746,6.629A1.127,1.127,0,0,1,712.312,2965.776Z" fill="#0f9091"/>
            <path id="Path_111" data-name="Path 111" d="M796.076,2931.08a1.138,1.138,0,0,1-.432-.086l-6.629-2.745a1.128,1.128,0,1,1,.864-2.083l6.628,2.745a1.128,1.128,0,0,1-.431,2.169Z" fill="#0f9091"/>
            <path id="Path_112" data-name="Path 112" d="M684.245,2884.757a1.13,1.13,0,0,1-.432-.085l-6.627-2.747a1.128,1.128,0,1,1,.864-2.083l6.626,2.746a1.127,1.127,0,0,1-.431,2.169Z" fill="#0f9091"/>
          </g>
        </g>
        <path id="Path_113" data-name="Path 113" d="M800.579,3116.012a1.126,1.126,0,0,1-1.127-1.127v-7.838a9.5,9.5,0,0,0-9.485-9.488H689.14a1.128,1.128,0,0,1,0-2.255H789.967a11.755,11.755,0,0,1,11.74,11.743v7.838A1.126,1.126,0,0,1,800.579,3116.012Z" transform="translate(-0.325 -1.924)" fill="#a4d4d5"/>
        <path id="Path_114" data-name="Path 114" d="M824.236,3012.23h-135.6a1.127,1.127,0,1,1,0-2.255h135.6a1.127,1.127,0,1,1,0,2.255Z" transform="translate(-0.325 -1.924)" fill="#a4d4d5"/>
        <g id="Group_55" data-name="Group 55" transform="translate(-0.325 -1.924)">
          <g id="Group_54" data-name="Group 54">
            <circle id="Ellipse_3" data-name="Ellipse 3" cx="40.092" cy="40.092" r="40.092" transform="translate(696.755 2865.327)" fill="#a4d4d5"/>
            <path id="Path_115" data-name="Path 115" d="M736.846,2946.638a41.219,41.219,0,1,1,41.22-41.22A41.266,41.266,0,0,1,736.846,2946.638Zm0-80.184a38.964,38.964,0,1,0,38.964,38.964A39.009,39.009,0,0,0,736.846,2866.454Z" fill="#0f9091"/>
          </g>
        </g>
        <g id="Group_59" data-name="Group 59" transform="translate(-0.325 -1.924)">
          <g id="Group_56" data-name="Group 56">
            <path id="Path_116" data-name="Path 116" d="M551.609,3106.389l59.877-36.7.347-.657.373.224.309.181.062.036.311.178.042.024.1.053.076.042c.721.4,1.445.755,2.179,1.084l.01.007c.434.195.872.378,1.308.549l.046.017.433.165.029.01.412.15.451.154.1.036.017.007.1.034.062.021.053.015.042.014.209.066.029.007.021.007.276.084.14.041.472.133.007,0,.283.077.032.007.112.027.024.008.273.066.108.028h0l.039.011.035.007.007,0c.266.063.528.123.793.175l.022,0,.052.014.032.007.448.087.128.021.133.025.011,0,.063.011.1.013.353.06.308.045.144.021.314.042c.405.053.814.1,1.223.13l.249.021.252.017.171.007c.6.039,1.21.053,1.815.049h.018c.446-.007.894-.021,1.342-.049l.217-.011.224-.017.07,0c.3-.024.6-.053.894-.084l.074-.011.489-.059.171-.021.2-.028.272-.042.277-.042.182-.031h.007l.01,0h.007l.448-.084h0l.038-.007.207-.042.217-.042.014,0,.091-.02.129-.025.283-.063.056-.014.1-.024.364-.088.143-.035.269-.07.169-.046.072-.02h.007l.253-.07.216-.063.29-.088.136-.041.032-.011.07-.021.013,0,.6-.195.01,0,.245-.084.035-.011.067-.025.027-.01h0l.049-.017,0,0,.027-.01.017-.007h.012l.021-.007.191-.07.007,0,.029-.012.034-.014.019-.006.044-.018h0l.057-.017.014-.007.042-.018.041-.014.011,0,.094-.035.008,0,.021-.011.121-.046.515-.206.02-.011.364-.15.007,0,.021-.01.021-.01.011,0,.031-.014h0l.024-.006.007-.008.015,0,.014-.007.053-.024.005,0,.015,0,.119-.052.014-.007.025-.011.006,0,.011-.007.217-.1.2-.087.35-.165.07-.035.052-.024.018-.01.049-.025.018-.007.2-.1.279-.144.011,0,.094-.049,0,0,.315-.164.059-.031.06-.032.041-.024.287-.154.094-.053.043-.024.311-.178.063-.036.307-.181.374-.224.347.657,59.876,36.7m35.806,3.963h0V3006.595a14.35,14.35,0,0,0-14.323-14.322H530.127a14.35,14.35,0,0,0-14.323,14.322v103.428m115.683-37.065h-.007l-.01,0,.017,0Zm-.007,0h0l-.01,0Z" fill="#0f9091" fill-rule="evenodd"/>
            <path id="Path_117" data-name="Path 117" d="M737.8,3111.48a1.126,1.126,0,0,1-1.127-1.128V3006.595a13.21,13.21,0,0,0-13.2-13.194H530.127a13.209,13.209,0,0,0-13.2,13.194v103.429a1.128,1.128,0,1,1-2.255,0V3006.595a15.466,15.466,0,0,1,15.45-15.449H723.476a15.467,15.467,0,0,1,15.451,15.449v103.757A1.127,1.127,0,0,1,737.8,3111.48Zm-35.806-3.964a1.136,1.136,0,0,1-.591-.165l-59.875-36.7a1.119,1.119,0,0,1-.128-.093l-1.008.546c-.022.014-.044.026-.066.038-.038.019-.172.085-.212.1l-.171.095-.214.106-.223.107-.347.166-.223.1-.161.072-.064.031c-.028.013-.081.037-.14.06l-.036.016v0h0a1.073,1.073,0,0,1-.179.082c-.019.011-.041.019-.061.028l-.91.371c-.031.012-.306.118-.339.128s-.2.077-.238.093l-.224.081-.029.009-.04.014-1.048.35-.271.083-.784.229-.075.019c-.075.019-.191.052-.2.052l-1.253.3-.227.047c-.008,0-.248.05-.259.051l-.082-.209a1.242,1.242,0,0,1-.167.149l.017.107-.438.081-.04.009c-.125.047-.088.021-.2.021a.05.05,0,0,0-.022,0l-.558.1c-.011,0-.222.031-.231.031l-.669.081c-.4.047-.7.075-1.013.1-.011,0-.315.025-.326.025-.67.039-1.134.053-1.6.059-.65.02-1.291-.009-1.923-.05l-.693-.047c-.423-.033-.851-.079-1.276-.134l-1.16-.175c-.046-.008-.253-.043-.3-.056l-.613-.109c-.387-.081-.665-.145-.942-.211l-.954-.242-.077-.024-.848-.247-.3-.092c-.029-.01-.317-.106-.346-.118l-1.4-.5c-.511-.2-.967-.39-1.418-.594-.02-.01-.042-.019-.062-.03-.744-.333-1.473-.7-2.2-1.1l-.232-.13-.125-.072a1.114,1.114,0,0,1-.128.093l-59.877,36.7a1.128,1.128,0,0,1-1.178-1.925l59.611-36.537.2-.383a1.125,1.125,0,0,1,1.575-.443l1.039.608c.888.488,1.584.836,2.293,1.152l.068.034q.6.267,1.2.5l1.324.48-.141,1.144.414-1.05-.046,1.166.282-1.093.96.279.066.02.625.16c.031.007.249.062.278.072.161.034.412.092.663.142l.548.11c.035.007.335.061.37.072l1.114.159c.384.049.776.092,1.165.123l.491.037c.74.044,1.315.053,1.9.053.44-.006.87-.02,1.3-.046l.229-.012.227-.018c.324-.024.61-.05.9-.081l.551-.069.227.476a1.045,1.045,0,0,1,.154-.242l-.044-.278.555-.084.1-.015a1.184,1.184,0,0,1,.268-.033l.247-.065.042.1a1.259,1.259,0,0,1,.247.1l-.047-.242.119.284a1.153,1.153,0,0,1,.251.216l-.077-.561,1.311-.309c.041-.011.132-.033.229-.054l0-.007.732-.213c.019-.006.275-.084.295-.088l.775-.26.006.012a1.159,1.159,0,0,1,.177-.078c.017-.007.037-.012.059-.019.044-.02.176-.064.207-.076s.2-.074.227-.081l.685.941-.419-1.047.888-.362.04-.017c.033-.016.066-.032.1-.046a1.294,1.294,0,0,1,.156-.064.574.574,0,0,1,.069-.037l.739-.341c.029-.013.249-.12.278-.131l.381-.2,0,.006c.033-.021.064-.041.1-.058l1.894-1.068a1.108,1.108,0,0,1,.883-.119,1.126,1.126,0,0,1,.7.559l.2.384,59.613,36.538a1.128,1.128,0,0,1-.59,2.09Z" fill="#f5f5f5"/>
          </g>
          <g id="Group_57" data-name="Group 57">
            <path id="Path_118" data-name="Path 118" d="M515.8,3110.352v3.58a14.35,14.35,0,0,0,14.323,14.322H723.476a14.35,14.35,0,0,0,14.323-14.322v-3.58L641.77,3051.5a28.038,28.038,0,0,0-29.937,0Z" fill="#0f9091" fill-rule="evenodd"/>
            <path id="Path_119" data-name="Path 119" d="M723.476,3129.382H530.127a15.467,15.467,0,0,1-15.45-15.451v-3.579a1.13,1.13,0,0,1,.538-.962l96.027-58.856a29.264,29.264,0,0,1,31.118,0l96.03,58.856a1.136,1.136,0,0,1,.537.962v3.579A15.468,15.468,0,0,1,723.476,3129.382Zm-206.544-18.4v2.947a13.21,13.21,0,0,0,13.2,13.2H723.476a13.211,13.211,0,0,0,13.2-13.2v-2.947l-95.493-58.527a27.035,27.035,0,0,0-28.757,0Z" fill="#f5f5f5"/>
          </g>
          <g id="Group_58" data-name="Group 58">
            <path id="Path_120" data-name="Path 120" d="M737.8,3010.175v-3.58a14.35,14.35,0,0,0-14.323-14.322H530.127a14.35,14.35,0,0,0-14.323,14.322v3.58l96.029,58.856a28.039,28.039,0,0,0,29.937,0Z" fill="#0f9091" fill-rule="evenodd"/>
            <path id="Path_121" data-name="Path 121" d="M626.8,3074.473a29.67,29.67,0,0,1-15.559-4.481l-96.027-58.855a1.126,1.126,0,0,1-.538-.961v-3.581a15.466,15.466,0,0,1,15.45-15.449H723.476a15.467,15.467,0,0,1,15.451,15.449v3.581a1.132,1.132,0,0,1-.537.961l-96.03,58.855A29.664,29.664,0,0,1,626.8,3074.473Zm-109.869-64.928,95.49,58.525a27.035,27.035,0,0,0,28.757,0l95.493-58.525v-2.95a13.21,13.21,0,0,0-13.2-13.194H530.127a13.209,13.209,0,0,0-13.2,13.194Zm220.867.631h0Z" fill="#f5f5f5"/>
          </g>
        </g>
        <path id="Path_122" data-name="Path 122" d="M411.292,3203.328a52.922,52.922,0,1,1,52.922-52.921A52.981,52.981,0,0,1,411.292,3203.328Zm0-103.588a50.667,50.667,0,1,0,50.667,50.667A50.723,50.723,0,0,0,411.292,3099.74Z" transform="translate(-0.325 -1.924)" fill="#a4d4d5"/>
        <g id="Group_60" data-name="Group 60" transform="translate(-0.325 -1.924)">
          <circle id="Ellipse_4" data-name="Ellipse 4" cx="44.496" cy="44.496" r="44.496" transform="translate(366.796 3105.911)" fill="#edc616"/>
          <path id="Path_123" data-name="Path 123" d="M411.292,3196.029a45.623,45.623,0,1,1,45.623-45.622A45.674,45.674,0,0,1,411.292,3196.029Zm0-88.991a43.368,43.368,0,1,0,43.368,43.369A43.417,43.417,0,0,0,411.292,3107.038Z" fill="#edc616"/>
        </g>
        <path id="Path_124" data-name="Path 124" d="M376.1,3240.713a1.123,1.123,0,0,1-1.111-.938l-3.477-20.353-19.061,7.316a1.127,1.127,0,0,1-1.384-1.61l22.2-39.079a1.127,1.127,0,1,1,1.96,1.114L354.585,3223.5l17.4-6.682a1.128,1.128,0,0,1,1.516.863l3.2,18.711,21.714-36.157a1.128,1.128,0,0,1,1.934,1.163l-23.28,38.764A1.126,1.126,0,0,1,376.1,3240.713Z" transform="translate(-0.325 -1.924)" fill="#a4d4d5"/>
        <path id="Path_125" data-name="Path 125" d="M447.015,3240.843a1.126,1.126,0,0,1-.967-.546l-23.28-38.766a1.128,1.128,0,0,1,1.934-1.163l21.714,36.159,3.2-18.711a1.126,1.126,0,0,1,1.515-.863l17.4,6.682-20.645-36.344a1.127,1.127,0,0,1,1.96-1.115l22.2,39.082a1.127,1.127,0,0,1-1.384,1.61l-19.06-7.316-3.478,20.353a1.123,1.123,0,0,1-.9.918A1.053,1.053,0,0,1,447.015,3240.843Z" transform="translate(-0.325 -1.924)" fill="#a4d4d5"/>
        <g id="Group_61" data-name="Group 61" transform="translate(-0.325 -1.924)">
          <path id="Path_126" data-name="Path 126" d="M376.718,3141.7h4.75c4.386,0,7.269,2.618,7.269,7.146,0,4.548-2.883,7.186-7.269,7.186h-4.75Zm4.608,12.585c3.229,0,5.34-1.907,5.34-5.439,0-3.513-2.132-5.4-5.34-5.4h-2.6v10.841Z" fill="#fff"/>
          <path id="Path_127" data-name="Path 127" d="M392.446,3141.7h2.112l3.29,7.754c.324.793.71,1.929.71,1.929h.041s.385-1.136.71-1.929l3.289-7.754h2.112l1.156,14.332h-1.989l-.711-9.034c-.061-.874-.02-2.112-.02-2.112h-.041s-.426,1.319-.771,2.112l-2.862,6.455h-1.787L394.843,3147c-.325-.773-.772-2.154-.772-2.154h-.041s.021,1.28-.04,2.154l-.69,9.034h-2.011Z" fill="#fff"/>
          <path id="Path_128" data-name="Path 128" d="M416.419,3151.911h-5.4l-1.421,4.121h-2.071l5.157-14.332H414.8l5.157,14.332h-2.091Zm-2.7-8.243s-.325,1.3-.568,2.031l-1.6,4.548h4.345l-1.584-4.548c-.244-.731-.548-2.031-.548-2.031Z" fill="#fff"/>
          <path id="Path_129" data-name="Path 129" d="M422.059,3141.7h4.385a7.276,7.276,0,0,1,2.68.323,4.262,4.262,0,0,1-.162,7.757v.039a4.2,4.2,0,0,1,.426.65l3.046,5.563H430.16l-3.026-5.7h-3.065v5.7h-2.01Zm4.893,6.882a2.385,2.385,0,0,0,2.538-2.6,2.346,2.346,0,0,0-1.137-2.213,3.948,3.948,0,0,0-1.97-.326h-2.314v5.138Z" fill="#fff"/>
          <path id="Path_130" data-name="Path 130" d="M441.382,3141.455a7.379,7.379,0,0,1,5.217,1.887l-.994,1.5a6.545,6.545,0,0,0-4.142-1.561,5.209,5.209,0,0,0-5.3,5.481,5.381,5.381,0,0,0,5.318,5.665,6.491,6.491,0,0,0,4.427-1.868l1.076,1.44a7.686,7.686,0,0,1-5.563,2.275,7.411,7.411,0,0,1-.041-14.821Z" fill="#fff"/>
        </g>
        <path id="Path_131" data-name="Path 131" d="M412.79,3015.1a45.061,45.061,0,1,1,45.06-45.06A45.112,45.112,0,0,1,412.79,3015.1Zm0-87.867a42.806,42.806,0,1,0,42.8,42.807A42.855,42.855,0,0,0,412.79,2927.236Z" transform="translate(-0.325 -1.924)" fill="#a4d4d5"/>
        <g id="Group_62" data-name="Group 62" transform="translate(-0.325 -1.924)">
          <circle id="Ellipse_5" data-name="Ellipse 5" cx="37.743" cy="37.743" r="37.743" transform="translate(375.046 2932.299)" fill="#a4d4d5"/>
          <path id="Path_132" data-name="Path 132" d="M412.79,3008.913a38.87,38.87,0,1,1,38.87-38.87A38.915,38.915,0,0,1,412.79,3008.913Zm0-75.486a36.615,36.615,0,1,0,36.615,36.616A36.656,36.656,0,0,0,412.79,2933.427Z" fill="#fff"/>
        </g>
        <path id="Path_133" data-name="Path 133" d="M382.94,3046.816a1.112,1.112,0,0,1-.208-.02,1.124,1.124,0,0,1-.9-.918l-2.915-17.06-15.973,6.131a1.128,1.128,0,0,1-1.384-1.61l18.832-33.15a1.127,1.127,0,0,1,1.96,1.115l-17.276,30.411,14.317-5.5a1.139,1.139,0,0,1,.962.073,1.126,1.126,0,0,1,.553.79l2.634,15.419,18.181-30.276a1.128,1.128,0,1,1,1.934,1.16l-19.747,32.884A1.129,1.129,0,0,1,382.94,3046.816Z" transform="translate(-0.325 -1.924)" fill="#a4d4d5"/>
        <path id="Path_134" data-name="Path 134" d="M443.091,3046.925a1.129,1.129,0,0,1-.967-.547L422.377,3013.5a1.128,1.128,0,0,1,1.934-1.161l18.181,30.275,2.634-15.417a1.124,1.124,0,0,1,.552-.791,1.141,1.141,0,0,1,.963-.073l14.318,5.5-17.277-30.411a1.127,1.127,0,1,1,1.96-1.114l18.833,33.149a1.128,1.128,0,0,1-1.384,1.61l-15.975-6.131-2.914,17.059a1.127,1.127,0,0,1-.9.918A1.141,1.141,0,0,1,443.091,3046.925Z" transform="translate(-0.325 -1.924)" fill="#a4d4d5"/>
        <g id="Group_63" data-name="Group 63" transform="translate(-0.325 -1.924)">
          <path id="Path_135" data-name="Path 135" d="M400.816,2965.118H395.9v-1.744h11.836v1.744h-4.913v12.589h-2.01Z" fill="#fff"/>
          <path id="Path_136" data-name="Path 136" d="M409.786,2963.374h2.01v12.586h6.416v1.747h-8.426Z" fill="#fff"/>
          <path id="Path_137" data-name="Path 137" d="M420.563,2974.54a5.656,5.656,0,0,0,3.654,1.544,2.211,2.211,0,0,0,2.477-2.112c0-3.108-6.944-2.438-6.944-6.843,0-2.233,1.929-4,4.629-4a5.878,5.878,0,0,1,4.061,1.44l-.914,1.665a5.052,5.052,0,0,0-3.147-1.238,2.343,2.343,0,0,0-2.6,2.093c0,2.964,6.943,2.171,6.943,6.82,0,2.213-1.7,4.041-4.547,4.041a6.707,6.707,0,0,1-4.752-1.889Z" fill="#fff"/>
        </g>
        <path id="Path_138" data-name="Path 138" d="M801.046,3219.691a52.922,52.922,0,1,1,52.923-52.921A52.981,52.981,0,0,1,801.046,3219.691Zm0-103.589a50.667,50.667,0,1,0,50.668,50.668A50.723,50.723,0,0,0,801.046,3116.1Z" transform="translate(-0.325 -1.924)" fill="#a4d4d5"/>
        <g id="Group_64" data-name="Group 64" transform="translate(-0.325 -1.924)">
          <circle id="Ellipse_6" data-name="Ellipse 6" cx="44.496" cy="44.496" r="44.496" transform="translate(756.551 3121.273)" fill="#fff"/>
          <path id="Path_139" data-name="Path 139" d="M801.046,3212.392a45.623,45.623,0,1,1,45.625-45.622A45.673,45.673,0,0,1,801.046,3212.392Zm0-88.991a43.368,43.368,0,1,0,43.37,43.369A43.417,43.417,0,0,0,801.046,3123.4Z" fill="#d5ebe8"/>
        </g>
        <path id="Path_140" data-name="Path 140" d="M765.856,3240.352a1.079,1.079,0,0,1-.209-.02,1.127,1.127,0,0,1-.9-.918l-3.477-20.356-19.061,7.316a1.127,1.127,0,0,1-1.383-1.609l16.579-29.183a1.127,1.127,0,1,1,1.96,1.115l-15.022,26.444,17.4-6.681a1.127,1.127,0,0,1,1.515.863l3.2,18.713,13.324-22.186a1.128,1.128,0,0,1,1.934,1.163l-14.89,24.793A1.126,1.126,0,0,1,765.856,3240.352Z" transform="translate(-0.325 -1.924)" fill="#a4d4d5"/>
        <path id="Path_141" data-name="Path 141" d="M836.769,3240.482a1.126,1.126,0,0,1-.967-.546l-15.059-25.079a1.128,1.128,0,1,1,1.934-1.163l13.493,22.472,3.2-18.713a1.127,1.127,0,0,1,1.515-.863l17.407,6.681-15.3-26.94a1.127,1.127,0,1,1,1.96-1.114l16.858,29.677a1.127,1.127,0,0,1-1.383,1.61l-19.06-7.316-3.478,20.356a1.125,1.125,0,0,1-.9.918A1.052,1.052,0,0,1,836.769,3240.482Z" transform="translate(-0.325 -1.924)" fill="#a4d4d5"/>
        <path id="Path_142" data-name="Path 142" d="M548.476,3331.593a35.865,35.865,0,1,1,35.9-35.865A35.923,35.923,0,0,1,548.476,3331.593Zm0-69.476a33.612,33.612,0,1,0,33.645,33.611A33.666,33.666,0,0,0,548.476,3262.117Z" transform="translate(-0.325 -1.924)" fill="#a4d4d5"/>
        <g id="Group_65" data-name="Group 65" transform="translate(-0.325 -1.924)">
          <ellipse id="Ellipse_7" data-name="Ellipse 7" cx="29.873" cy="29.843" rx="29.873" ry="29.843" transform="translate(518.603 3265.885)" fill="#d5ebe8"/>
          <path id="Path_143" data-name="Path 143" d="M548.476,3326.7a30.969,30.969,0,1,1,31-30.969A31.02,31.02,0,0,1,548.476,3326.7Zm0-59.685a28.717,28.717,0,1,0,28.745,28.716A28.763,28.763,0,0,0,548.476,3267.012Z" fill="#fff"/>
        </g>
        <path id="Path_144" data-name="Path 144" d="M538.733,3345.451a1.111,1.111,0,0,1-.208-.02,1.124,1.124,0,0,1-.9-.917l-2.259-13.207-12.374,4.745a1.126,1.126,0,0,1-1.384-1.608l11.129-19.573a1.127,1.127,0,0,1,1.96,1.113l-9.573,16.838,10.718-4.112a1.142,1.142,0,0,1,.962.073,1.128,1.128,0,0,1,.553.79l1.978,11.566,8.43-14.024a1.128,1.128,0,0,1,1.934,1.162l-10,16.628A1.128,1.128,0,0,1,538.733,3345.451Z" transform="translate(-14.325 -1.924)" fill="#a4d4d5"/>
        <path id="Path_145" data-name="Path 145" d="M586.342,3345.537a1.128,1.128,0,0,1-.967-.546l-10.111-16.82a1.128,1.128,0,0,1,1.934-1.161l8.544,14.214,1.978-11.565a1.127,1.127,0,0,1,1.515-.863l10.72,4.112-9.764-17.17a1.127,1.127,0,0,1,1.96-1.113l11.32,19.905a1.127,1.127,0,0,1-1.384,1.608l-12.376-4.746-2.258,13.207a1.127,1.127,0,0,1-.9.918A1.141,1.141,0,0,1,586.342,3345.537Z" transform="translate(-14.325 -1.924)" fill="#a4d4d5"/>
        <path id="Path_146" data-name="Path 146" d="M866.205,3051.661a42.533,42.533,0,1,1,42.532-42.534A42.582,42.582,0,0,1,866.205,3051.661Zm0-82.812a40.278,40.278,0,1,0,40.277,40.278A40.323,40.323,0,0,0,866.205,2968.849Z" transform="translate(-0.325 -1.924)" fill="#a4d4d5"/>
        <g id="Group_66" data-name="Group 66" transform="translate(-0.325 -1.924)">
          <circle id="Ellipse_8" data-name="Ellipse 8" cx="35.571" cy="35.571" r="35.571" transform="translate(830.633 2973.556)" fill="#d5ebe8"/>
          <path id="Path_147" data-name="Path 147" d="M866.205,3045.826a36.7,36.7,0,1,1,36.7-36.7A36.74,36.74,0,0,1,866.205,3045.826Zm0-71.142a34.443,34.443,0,1,0,34.443,34.443A34.482,34.482,0,0,0,866.205,2974.684Z" fill="#d5ebe8"/>
        </g>
        <path id="Path_148" data-name="Path 148" d="M838.073,3081.547a1.16,1.16,0,0,1-.209-.02,1.127,1.127,0,0,1-.9-.919l-2.733-16-14.982,5.75a1.127,1.127,0,0,1-1.383-1.61l17.748-31.241a1.127,1.127,0,1,1,1.96,1.114l-16.193,28.5,13.328-5.114a1.129,1.129,0,0,1,1.515.864l2.451,14.355,17.046-28.38a1.127,1.127,0,1,1,1.933,1.16L839.04,3081A1.127,1.127,0,0,1,838.073,3081.547Z" transform="translate(-0.325 -1.924)" fill="#a4d4d5"/>
        <path id="Path_149" data-name="Path 149" d="M894.762,3081.65a1.126,1.126,0,0,1-.967-.546l-18.609-30.99a1.127,1.127,0,1,1,1.933-1.161l17.044,28.381,2.453-14.357a1.129,1.129,0,0,1,1.515-.862l13.324,5.115-16.191-28.5a1.127,1.127,0,0,1,1.96-1.115l17.748,31.243a1.127,1.127,0,0,1-1.383,1.61l-14.982-5.75-2.733,16a1.128,1.128,0,0,1-.9.918A1.066,1.066,0,0,1,894.762,3081.65Z" transform="translate(-0.325 -1.924)" fill="#a4d4d5"/>
        <g id="Group_67" data-name="Group 67" transform="translate(-0.325 -1.924)">
          <path id="Path_150" data-name="Path 150" d="M770.333,3158.39h6.118c5.649,0,9.361,3.372,9.361,9.2,0,5.856-3.712,9.254-9.361,9.254h-6.118Zm5.936,16.208c4.158,0,6.875-2.456,6.875-7,0-4.524-2.746-6.957-6.875-6.957h-3.346V3174.6Z" fill="#0f9091"/>
          <path id="Path_151" data-name="Path 151" d="M789.675,3158.39h2.586v7.765h2.746l4.654-7.765h2.85l-5.36,8.757v.051l5.7,9.649h-2.927l-4.917-8.472h-2.746v8.472h-2.586Z" fill="#0f9091"/>
          <path id="Path_152" data-name="Path 152" d="M805.956,3158.39h2.59v18.457h-2.59Z" fill="#0f9091"/>
          <path id="Path_153" data-name="Path 153" d="M814.479,3158.39H817.2l4.235,9.985c.419,1.021.916,2.485.916,2.485h.051s.5-1.464.916-2.485l4.234-9.985h2.72l1.491,18.457H829.2l-.916-11.634c-.077-1.126-.026-2.719-.026-2.719h-.051s-.55,1.7-.995,2.719l-3.684,8.313h-2.3l-3.659-8.313c-.419-.995-1-2.773-1-2.773h-.051s.025,1.647-.051,2.773l-.891,11.634h-2.589Z" fill="#0f9091"/>
        </g>
        <path id="Path_154" data-name="Path 154" d="M752.733,2892.247a1.2,1.2,0,0,0-.864-.987l-14.7-4.089a1.186,1.186,0,0,0-.641,0l-14.7,4.089a1.2,1.2,0,0,0-.864.987c-.085.613-2.03,15.1,2.959,22.309a23.476,23.476,0,0,0,12.648,9.119,1.21,1.21,0,0,0,.561,0,23.472,23.472,0,0,0,12.647-9.119C754.764,2907.349,752.818,2892.86,752.733,2892.247Zm-6.4,8.458L736.3,2910.734a1.2,1.2,0,0,1-1.691,0l-6.2-6.2a1.193,1.193,0,0,1,0-1.69l1.231-1.231a1.194,1.194,0,0,1,1.69,0l4.125,4.124,7.952-7.953a1.2,1.2,0,0,1,1.69,0l1.232,1.232A1.2,1.2,0,0,1,746.328,2900.705Z" transform="translate(-0.325 -1.924)" fill="#fff"/>
        <g id="Group_69" data-name="Group 69" transform="translate(-0.325 -1.924)">
          <g id="Group_68" data-name="Group 68">
            <circle id="Ellipse_9" data-name="Ellipse 9" cx="17.116" cy="17.116" r="17.116" transform="translate(589.709 2823.065)" fill="#fff"/>
            <path id="Path_155" data-name="Path 155" d="M606.826,2858.425a18.244,18.244,0,1,1,18.244-18.243A18.264,18.264,0,0,1,606.826,2858.425Zm0-34.233a15.989,15.989,0,1,0,15.988,15.99A16.007,16.007,0,0,0,606.826,2824.192Z" fill="#0f9091"/>
          </g>
        </g>
        <g id="Group_71" data-name="Group 71" transform="translate(-0.325 -1.924)">
          <g id="Group_70" data-name="Group 70">
            <circle id="Ellipse_10" data-name="Ellipse 10" cx="13.486" cy="13.486" r="13.486" transform="translate(498.387 2906.16)" fill="#fff"/>
            <path id="Path_156" data-name="Path 156" d="M511.872,2934.259a14.614,14.614,0,1,1,14.613-14.614A14.63,14.63,0,0,1,511.872,2934.259Zm0-26.972a12.358,12.358,0,1,0,12.358,12.358A12.372,12.372,0,0,0,511.872,2907.287Z" fill="#0f9091"/>
          </g>
        </g>
        <path id="Path_157" data-name="Path 157" d="M614.186,2834.079a.555.555,0,0,0-.4-.458l-6.813-1.9a.553.553,0,0,0-.3,0l-6.813,1.9a.552.552,0,0,0-.4.458c-.04.284-.941,7,1.371,10.337a10.879,10.879,0,0,0,5.86,4.226.576.576,0,0,0,.13.015.563.563,0,0,0,.13-.015,10.883,10.883,0,0,0,5.861-4.226C615.127,2841.076,614.225,2834.363,614.186,2834.079ZM611.218,2838l-4.647,4.647a.556.556,0,0,1-.784,0l-2.873-2.873a.555.555,0,0,1,0-.784l.571-.57a.554.554,0,0,1,.783,0l1.911,1.911,3.685-3.685a.554.554,0,0,1,.783,0l.571.571A.554.554,0,0,1,611.218,2838Z" transform="translate(-0.325 -1.924)" fill="#0f9091"/>
        <g id="Group_72" data-name="Group 72" transform="translate(-0.325 -1.924)">
          <path id="Path_158" data-name="Path 158" d="M515.961,2917.886h-.615v-1.52a3.474,3.474,0,0,0-6.948,0v1.52h-.614a.359.359,0,0,0-.36.359v6.741a.359.359,0,0,0,.36.359h8.177a.359.359,0,0,0,.359-.359v-6.741A.359.359,0,0,0,515.961,2917.886Zm-3.528,4.1v1.435a.227.227,0,0,1-.227.227h-.667a.227.227,0,0,1-.227-.227v-1.435a.971.971,0,1,1,1.121,0Zm1.255-4.1h-3.631v-1.52a1.815,1.815,0,0,1,3.631,0Z" fill="#0f9091"/>
        </g>
        <g id="Group_73" data-name="Group 73" transform="translate(-0.325 -1.924)">
          <path id="Path_159" data-name="Path 159" d="M640.259,3024.684h-2.023v-5a11.435,11.435,0,1,0-22.869,0v5h-2.023a1.182,1.182,0,0,0-1.183,1.182v22.186a1.183,1.183,0,0,0,1.183,1.183h26.915a1.183,1.183,0,0,0,1.183-1.183v-22.186A1.182,1.182,0,0,0,640.259,3024.684Zm-11.613,13.5v4.723a.747.747,0,0,1-.747.747h-2.2a.747.747,0,0,1-.747-.747v-4.723a3.194,3.194,0,1,1,3.689,0Zm4.131-13.5H620.826v-5a5.975,5.975,0,0,1,11.951,0Z" fill="#edc616"/>
        </g>
        <g id="Group_74" data-name="Group 74" transform="translate(-0.325 -1.924)">
          <path id="Path_160" data-name="Path 160" d="M463.456,2812.981a5.139,5.139,0,1,1,5.139,5.139A5.145,5.145,0,0,1,463.456,2812.981Zm2.327,0a2.813,2.813,0,1,0,2.812-2.814A2.816,2.816,0,0,0,465.783,2812.981Z" fill="#edc616"/>
          <path id="Path_161" data-name="Path 161" d="M518.279,2790.322h31.95a1.163,1.163,0,1,0,0-2.326h-31.95a1.163,1.163,0,1,0,0,2.326Z" fill="#edc616"/>
          <path id="Path_162" data-name="Path 162" d="M489.523,2790.322h12.216a1.163,1.163,0,1,0,0-2.326H489.523a1.163,1.163,0,1,0,0,2.326Z" fill="#d6ebe8"/>
          <path id="Path_163" data-name="Path 163" d="M486.845,2814.144H514a1.163,1.163,0,1,0,0-2.326H486.845a1.163,1.163,0,1,0,0,2.326Z" fill="#d6ebe8"/>
        </g>
        <g id="Group_75" data-name="Group 75" transform="translate(-0.325 -1.924)">
          <path id="Path_164" data-name="Path 164" d="M495.419,3154.956h-9.547a1.5,1.5,0,1,1,0-3h9.547a1.5,1.5,0,0,1,0,3Z" fill="#edc616"/>
          <path id="Path_165" data-name="Path 165" d="M463.683,3101.39a1.5,1.5,0,0,1-1.061-2.561l6.749-6.752a1.5,1.5,0,1,1,2.122,2.122l-6.749,6.751A1.5,1.5,0,0,1,463.683,3101.39Z" fill="#edc616"/>
          <path id="Path_166" data-name="Path 166" d="M480.105,3125.964a1.5,1.5,0,0,1-.575-2.887l8.821-3.651a1.5,1.5,0,1,1,1.148,2.772l-8.82,3.651A1.48,1.48,0,0,1,480.105,3125.964Z" fill="#edc616"/>
          <path id="Path_167" data-name="Path 167" d="M488.925,3187.6a1.464,1.464,0,0,1-.574-.114l-8.821-3.654a1.5,1.5,0,0,1,1.149-2.772l8.82,3.654a1.5,1.5,0,0,1-.574,2.886Z" fill="#edc616"/>
        </g>
        <path id="Path_168" data-name="Path 168" d="M859.87,2871.892a1.164,1.164,0,0,1-.823-1.986l2.988-2.988a1.163,1.163,0,0,1,1.645,1.645l-2.988,2.988A1.16,1.16,0,0,1,859.87,2871.892Zm12.67,0a1.158,1.158,0,0,1-.822-.341l-2.989-2.988a1.163,1.163,0,0,1,1.645-1.645l2.988,2.988a1.164,1.164,0,0,1-.822,1.986Zm-9.683-9.682a1.159,1.159,0,0,1-.822-.341l-2.988-2.989a1.163,1.163,0,0,1,1.645-1.645l2.988,2.989a1.163,1.163,0,0,1-.823,1.986Zm6.694,0a1.163,1.163,0,0,1-.822-1.986l2.989-2.989a1.163,1.163,0,0,1,1.644,1.645l-2.988,2.989A1.161,1.161,0,0,1,869.551,2862.21Z" transform="translate(-0.325 -1.924)" fill="#d6ebe8"/>
        <path id="Path_169" data-name="Path 169" d="M849.6,2893.2h-6.962a1.163,1.163,0,1,1,0-2.326H849.6a1.163,1.163,0,1,1,0,2.326Z" transform="translate(-0.325 -1.924)" fill="#edc616"/>
        <path id="Path_170" data-name="Path 170" d="M889.771,2893.2H865.622a1.163,1.163,0,1,1,0-2.326h24.149a1.163,1.163,0,1,1,0,2.326Z" transform="translate(-0.325 -1.924)" fill="#d6ebe8"/>
        <g id="Group_76" data-name="Group 76" transform="translate(-0.325 -1.924)">
          <path id="Path_171" data-name="Path 171" d="M720.484,3289.031H705.7a1.163,1.163,0,1,1,0-2.327h14.781a1.163,1.163,0,0,1,0,2.327Z" fill="#a4d4d5"/>
          <path id="Path_172" data-name="Path 172" d="M713.093,3296.424a1.163,1.163,0,0,1-1.163-1.164v-14.783a1.163,1.163,0,1,1,2.326,0v14.783A1.163,1.163,0,0,1,713.093,3296.424Z" fill="#a4d4d5"/>
        </g>
        <path id="Path_173" data-name="Path 173" d="M633.466,3263.62h-7.548a1.163,1.163,0,0,1,0-2.326h7.548a1.163,1.163,0,0,1,0,2.326Z" transform="translate(-0.325 -1.924)" fill="#edc616"/>
        <path id="Path_174" data-name="Path 174" d="M711.93,3240.657h-30.8a1.163,1.163,0,1,1,0-2.327h30.8a1.163,1.163,0,0,1,0,2.327Z" transform="translate(-0.325 -1.924)" fill="#edc616"/>
        <path id="Path_175" data-name="Path 175" d="M665.19,3240.657H653.414a1.163,1.163,0,0,1,0-2.327H665.19a1.163,1.163,0,0,1,0,2.327Z" transform="translate(-0.325 -1.924)" fill="#d6ebe8"/>
        <path id="Path_176" data-name="Path 176" d="M677.01,3263.619H650.832a1.163,1.163,0,1,1,0-2.326H677.01a1.163,1.163,0,1,1,0,2.326Z" transform="translate(-0.325 -1.924)" fill="#d6ebe8"/>
        <g id="Group_77" data-name="Group 77" transform="translate(-0.325 -1.924)">
          <path id="Path_177" data-name="Path 177" d="M526.627,3298.255a3.646,3.646,0,0,0,2.354.993,1.424,1.424,0,0,0,1.6-1.359c0-2-4.473-1.572-4.473-4.409a2.735,2.735,0,0,1,2.982-2.577,3.787,3.787,0,0,1,2.616.928l-.588,1.073a3.255,3.255,0,0,0-2.028-.8,1.51,1.51,0,0,0-1.674,1.348c0,1.91,4.473,1.4,4.473,4.4a2.661,2.661,0,0,1-2.929,2.6,4.324,4.324,0,0,1-3.062-1.217Z" fill="#0f9091"/>
          <path id="Path_178" data-name="Path 178" d="M536.278,3290.563H537.4l-3.323,10.28h-1.125Z" fill="#0f9091"/>
          <path id="Path_179" data-name="Path 179" d="M539.48,3291.062h1.36l2.119,4.994c.209.511.458,1.243.458,1.243h.025s.249-.732.459-1.243l2.118-4.994h1.36l.747,9.233h-1.283l-.458-5.819c-.039-.565-.013-1.362-.013-1.362h-.026s-.275.851-.5,1.362l-1.842,4.156h-1.152l-1.831-4.156c-.21-.5-.5-1.388-.5-1.388H540.5s.013.823-.026,1.388l-.445,5.819h-1.295Z" fill="#0f9091"/>
          <path id="Path_180" data-name="Path 180" d="M550.344,3291.062h1.3v9.233h-1.3Z" fill="#0f9091"/>
          <path id="Path_181" data-name="Path 181" d="M554.608,3291.062h1.36l2.118,4.994c.21.511.459,1.243.459,1.243h.025s.248-.732.458-1.243l2.119-4.994h1.36l.746,9.233h-1.282l-.458-5.819c-.039-.565-.013-1.362-.013-1.362h-.026s-.275.851-.5,1.362l-1.843,4.156h-1.152l-1.83-4.156c-.21-.5-.5-1.388-.5-1.388h-.025s.013.823-.026,1.388l-.445,5.819h-1.3Z" fill="#0f9091"/>
          <path id="Path_182" data-name="Path 182" d="M565.472,3291.062h5.363v1.124h-4.067v2.891h3.308v1.124h-3.308v2.968h4.29v1.126h-5.586Z" fill="#0f9091"/>
        </g>
        <g id="Group_78" data-name="Group 78" transform="translate(-0.325 -1.924)">
          <path id="Path_183" data-name="Path 183" d="M848.736,3015.242a7.176,7.176,0,0,0,4.634,1.955c1.7,0,3.14-.954,3.14-2.675,0-3.936-8.8-3.088-8.8-8.668,0-2.828,2.446-5.066,5.87-5.066a7.456,7.456,0,0,1,5.149,1.825l-1.159,2.109a6.414,6.414,0,0,0-3.99-1.568c-1.931,0-3.295,1.208-3.295,2.65,0,3.755,8.8,2.751,8.8,8.64,0,2.8-2.162,5.119-5.766,5.119a8.505,8.505,0,0,1-6.025-2.394Z" fill="#0f9091"/>
          <path id="Path_184" data-name="Path 184" d="M862.736,3001.1h6.641a5.422,5.422,0,0,1,5.715,5.683,5.484,5.484,0,0,1-5.715,5.76h-4.093v6.712h-2.548Zm6.229,9.231a3.277,3.277,0,0,0,3.527-3.548,3.213,3.213,0,0,0-3.5-3.474h-3.707v7.022Z" fill="#0f9091"/>
          <path id="Path_185" data-name="Path 185" d="M878.356,3001.1H888.37v2.209H880.9v5.967h6.359v2.213H880.9v7.766h-2.548Z" fill="#0f9091"/>
        </g>
      </g>
    </g>
  </g>
</svg>
